PathFileType	4	(X/Y/Z)	s06c0202.trc
DataRate	CameraRate	NumFrames	NumMarkers	Units	OrigDataRate	OrigDataStartFrame	OrigNumFrames
200	200	4	48	mm	200	500	2000
Frame#	Time	racr			lacr			c7			jug			rlel			rdr			llel			ldr			s2			lic			ric			lasi			rasi			rpsi			lpsi			rgt			lgt			rth1			rth2			rth3			rth4			rlfc			rmfc			rsh1			rsh2			rsh3			rsh4			rlmal			rcal			rtoe			rmt5			lth1			lth2			lth4			lth3			llfc			lmfc			llmal			lcal			lmt5			lsh1			lsh2			lsh3			lsh4			ltoe			SBIKE			LBIKE			RBIKE			
		X1	Y1	Z1	X2	Y2	Z2	X3	Y3	Z3	X4	Y4	Z4	X5	Y5	Z5	X6	Y6	Z6	X7	Y7	Z7	X8	Y8	Z8	X9	Y9	Z9	X10	Y10	Z10	X11	Y11	Z11	X12	Y12	Z12	X13	Y13	Z13	X14	Y14	Z14	X15	Y15	Z15	X16	Y16	Z16	X17	Y17	Z17	X18	Y18	Z18	X19	Y19	Z19	X20	Y20	Z20	X21	Y21	Z21	X22	Y22	Z22	X23	Y23	Z23	X24	Y24	Z24	X25	Y25	Z25	X26	Y26	Z26	X27	Y27	Z27	X28	Y28	Z28	X29	Y29	Z29	X30	Y30	Z30	X31	Y31	Z31	X32	Y32	Z32	X33	Y33	Z33	X34	Y34	Z34	X35	Y35	Z35	X36	Y36	Z36	X37	Y37	Z37	X38	Y38	Z38	X39	Y39	Z39	X40	Y40	Z40	X41	Y41	Z41	X42	Y42	Z42	X43	Y43	Z43	X44	Y44	Z44	X45	Y45	Z45	X46	Y46	Z46	X47	Y47	Z47	X48	Y48	Z48	
500	2.5000	519.225891	1274.644794	-73.389200	521.523836	1246.477987	-398.321581	510.705018	1375.991586	-234.843074	523.499302	1214.467735	-227.029423	487.804285	1020.464987	41.491748	670.034197	916.297166	-63.227232	450.863379	988.067966	-475.382051	654.469395	920.676059	-395.138803	-12.078057	1148.519163	-227.703383	151.989088	1104.294233	-394.045992	127.666886	1126.571129	-57.770571	171.865322	1056.001829	-347.164674	153.932403	1078.788204	-91.362785	19.027879	1186.898420	-198.915780	23.099315	1182.279177	-259.064794	105.778564	1067.269145	-17.006969	124.512234	1028.150616	-411.295823	210.619001	1004.251168	-15.228255	297.584612	980.298150	-21.787063	358.812579	919.444038	-19.438869	311.564742	1008.242296	-43.844038	413.930325	828.915525	-44.840589	399.241817	806.583647	-155.469912	324.032250	741.263481	-23.531581	268.782640	678.550737	-45.773614	187.356778	644.097267	-48.582537	283.395674	664.026778	-81.550133	113.696856	602.657074	-53.157741	47.644115	622.095676	-104.128265	230.639402	414.775662	-101.113939	148.541877	469.933704	-33.025946	155.284503	904.646262	-429.018218	211.756561	838.609233	-424.372728	244.501069	854.180930	-414.862073	227.501620	750.688845	-416.012301	254.923076	632.258642	-396.606917	256.335410	615.767604	-280.729570	196.020754	261.271398	-380.138518	125.508172	233.714804	-334.104212	317.045778	185.068984	-405.146111	240.494280	521.987671	-417.054196	248.616024	437.926896	-396.765787	213.955839	356.134389	-391.688984	274.167286	438.914078	-366.533431	403.105711	187.920678	-346.465582	-202.653781	866.372813	-215.321738	-49.102373	79.985841	-415.265704	-49.094394	79.961132	-17.762285	
501	2.5050	518.544102	1274.416816	-72.957401	521.654442	1246.573275	-397.736762	510.358130	1375.742687	-234.089802	522.903056	1214.039870	-226.540855	487.603975	1020.323043	41.789113	669.966494	916.451080	-63.040669	451.446735	988.334617	-475.697006	654.975269	920.526507	-395.228357	-12.429537	1148.457524	-228.869811	151.794664	1104.344430	-394.720972	126.466755	1127.097104	-58.664243	171.683421	1056.164595	-347.975698	152.726728	1079.069339	-91.914263	18.561059	1186.632496	-199.988133	22.754772	1182.155968	-260.198468	104.731630	1068.579291	-17.851374	123.805326	1027.267813	-412.098026	209.986679	1006.396958	-15.582079	297.212310	983.637130	-21.518243	359.024898	923.400867	-19.158420	310.847466	1011.496818	-44.251383	415.721291	833.110170	-44.457398	400.871378	810.731095	-155.000637	326.186852	744.467578	-23.368942	271.184270	681.714958	-45.757273	189.877874	646.821103	-48.549102	285.592960	667.564061	-81.733131	116.144254	605.920309	-52.637892	49.720158	624.080108	-104.128719	236.014053	419.456833	-101.802218	153.170755	473.660879	-33.044567	153.895153	903.400643	-429.665866	209.929984	836.901305	-425.035962	242.783139	852.311047	-415.547032	224.987623	749.028272	-416.933651	251.709452	630.278642	-397.023020	253.077596	613.942358	-281.067360	192.205942	259.609735	-380.073787	121.615849	232.957307	-333.993405	312.528159	181.623406	-404.944413	236.934733	520.093584	-417.416346	244.979944	436.025429	-396.914173	210.223884	354.290392	-391.745771	270.571252	437.040857	-366.849472	398.542176	183.391507	-346.424391	-202.659867	866.447082	-215.435796	-49.107251	79.960967	-415.269065	-49.091902	79.952047	-17.762882	
502	2.5100	517.834834	1274.144137	-72.490383	521.760172	1246.786465	-397.065877	509.966133	1375.388822	-233.247282	522.187975	1213.447612	-226.036057	487.430939	1020.082536	42.030885	669.899541	916.612332	-62.896625	452.090747	988.529534	-475.988653	655.513269	920.424332	-395.372834	-12.958478	1148.217735	-230.104149	151.468117	1104.337326	-395.388552	125.211523	1127.495714	-59.600235	171.507965	1056.242224	-348.767122	151.440536	1079.257387	-92.573305	17.945202	1186.614132	-201.248634	22.376379	1181.974903	-261.419367	103.725917	1069.863984	-18.877924	123.011549	1026.339459	-412.889600	209.132954	1008.421098	-16.024371	296.664238	986.694683	-21.688015	359.385052	927.033818	-19.200675	310.097801	1014.563055	-44.557361	417.385533	837.117343	-44.529440	402.383159	814.911311	-154.632625	328.512400	747.557482	-23.193341	273.611067	684.721180	-45.933314	192.515466	649.486129	-48.481477	287.908651	670.783630	-82.138348	118.891986	608.326206	-53.163665	51.941145	625.778141	-104.081212	241.605403	424.398938	-101.849557	157.947543	477.232818	-33.090706	152.579487	902.151580	-430.322575	208.147227	835.258419	-425.770431	241.245132	850.492043	-416.341181	222.562396	747.263752	-417.598174	248.663683	628.438167	-397.332708	249.940688	612.147837	-281.408937	188.306760	258.062929	-380.029039	117.631831	232.205517	-333.862092	307.805012	178.517863	-404.958277	233.504424	518.381952	-417.713716	241.406832	434.257829	-397.205077	206.485955	352.616997	-391.892696	266.999680	435.252794	-367.063604	393.952384	179.159608	-346.281147	-202.651109	866.395846	-215.507654	-49.108265	79.982004	-415.270369	-49.078343	79.952792	-17.770254	
503	2.5150	517.053975	1273.770865	-72.024149	521.802634	1246.862677	-396.446790	509.549774	1375.014457	-232.454060	521.458543	1212.836867	-225.511829	486.957515	1019.952800	42.460145	669.818994	916.747880	-62.791092	452.735212	988.654317	-476.412559	656.045488	920.344221	-395.558241	-13.531239	1148.029463	-231.212535	151.101599	1104.257447	-395.957903	123.865709	1127.695910	-60.528879	171.296929	1056.207704	-349.668072	150.096405	1079.289547	-93.257741	17.342695	1186.574493	-202.562865	21.860104	1181.568998	-262.801932	102.616954	1071.225694	-20.306977	122.288438	1025.352096	-413.673672	208.252837	1010.504751	-16.403539	296.029830	989.648893	-21.771007	359.464366	930.741681	-19.096347	309.079064	1018.060017	-43.972455	418.989124	841.134726	-44.129104	403.419929	819.284991	-154.856140	330.879351	750.622985	-22.997554	276.130326	687.623536	-46.032512	195.277462	651.993184	-48.421286	290.417167	674.226649	-82.022752	121.657919	610.867852	-53.142755	54.250173	627.278365	-104.045606	247.249113	429.113160	-101.991967	162.551004	480.558701	-33.076478	151.282805	900.834051	-431.021520	206.492966	833.593109	-426.488483	239.675287	848.626456	-417.004909	220.425533	745.587304	-418.269138	245.870195	626.746104	-397.726532	247.048789	610.500314	-281.703988	184.292530	256.634205	-379.942578	113.510431	231.654775	-333.792213	302.961744	175.492560	-404.806491	230.213559	516.711965	-417.977678	237.874906	432.563694	-397.397674	202.713809	351.021725	-391.948715	263.480115	433.528622	-367.297867	389.117878	175.103098	-346.198737	-202.652831	866.431558	-215.513312	-49.112552	79.989383	-415.262385	-49.091524	79.953993	-17.764423	
